<svg width="18" height="18" viewBox="0 0 18 18" fill="none" xmlns="http://www.w3.org/2000/svg">
<path d="M15.1437 2.07079H14.368V0.77771H13.0743V2.07079H4.53937V0.77771H3.24564V2.07079H2.47001C1.40008 2.07079 0.529419 2.94101 0.529419 4.0104V15.3877C0.529419 16.454 1.40008 17.3242 2.47001 17.3242H15.1437C16.2136 17.3242 17.0843 16.454 17.0843 15.3846V4.0104C17.0843 2.94101 16.2136 2.07079 15.1437 2.07079ZM15.7905 15.3846C15.7905 15.74 15.4993 16.0311 15.1437 16.0311H2.47001C2.11439 16.0311 1.82315 15.74 1.82315 15.3846V6.85395H15.7905V15.3846ZM15.7905 5.56087H1.82315V4.0104C1.82315 3.65496 2.11439 3.36387 2.47001 3.36387H3.24564V4.65694H4.53937V3.36387H13.0743V4.65694H14.368V3.36387H15.1437C15.4993 3.36387 15.7905 3.65496 15.7905 4.0104V5.56087Z" fill="white"/>
<path d="M4.28177 8.2113H2.98804V9.5044H4.28177V8.2113Z" fill="white"/>
<path d="M6.86624 8.2113H5.57251V9.5044H6.86624V8.2113Z" fill="white"/>
<path d="M9.45377 8.2113H8.16003V9.5044H9.45377V8.2113Z" fill="white"/>
<path d="M12.0412 8.2113H10.7474V9.5044H12.0412V8.2113Z" fill="white"/>
<path d="M14.6287 8.2113H13.335V9.5044H14.6287V8.2113Z" fill="white"/>
<path d="M4.28177 10.7975H2.98804V12.0906H4.28177V10.7975Z" fill="white"/>
<path d="M6.86624 10.7975H5.57251V12.0906H6.86624V10.7975Z" fill="white"/>
<path d="M9.45377 10.7975H8.16003V12.0906H9.45377V10.7975Z" fill="white"/>
<path d="M12.0412 10.7975H10.7474V12.0906H12.0412V10.7975Z" fill="white"/>
<path d="M4.28177 13.3806H2.98804V14.6737H4.28177V13.3806Z" fill="white"/>
<path d="M6.86624 13.3806H5.57251V14.6737H6.86624V13.3806Z" fill="white"/>
<path d="M9.45377 13.3806H8.16003V14.6737H9.45377V13.3806Z" fill="white"/>
<path d="M12.0412 13.3806H10.7474V14.6737H12.0412V13.3806Z" fill="white"/>
<path d="M14.6287 10.7975H13.335V12.0906H14.6287V10.7975Z" fill="white"/>
</svg>
